<mxfile host="app.diagrams.net" agent="Mozilla/5.0 (Windows NT 10.0; Win64; x64) AppleWebKit/537.36 (KHTML, like Gecko) Chrome/129.0.0.0 Safari/537.36" version="24.7.10">
  <diagram name="Page-1" id="HYo3Nj5y7LHSKYeUsHgo">
    <mxGraphModel dx="2206" dy="2325" grid="1" gridSize="10" guides="1" tooltips="1" connect="1" arrows="1" fold="1" page="1" pageScale="1" pageWidth="850" pageHeight="1100" math="0" shadow="0">
      <root>
        <mxCell id="0" />
        <mxCell id="1" parent="0" />
        <mxCell id="DQu54AZHkkBTK6mNKedk-26" value="" style="rounded=0;whiteSpace=wrap;html=1;dashed=1;" vertex="1" parent="1">
          <mxGeometry x="235.5" y="-260" width="214.5" height="160" as="geometry" />
        </mxCell>
        <mxCell id="QAvrT4whTYch6-Az0xgL-63" value="" style="rounded=0;whiteSpace=wrap;html=1;dashed=1;" parent="1" vertex="1">
          <mxGeometry x="293" y="1010" width="279" height="220" as="geometry" />
        </mxCell>
        <mxCell id="QAvrT4whTYch6-Az0xgL-59" value="" style="rounded=0;whiteSpace=wrap;html=1;dashed=1;" parent="1" vertex="1">
          <mxGeometry x="310" y="490" width="240" height="97" as="geometry" />
        </mxCell>
        <mxCell id="DQu54AZHkkBTK6mNKedk-5" value="" style="rounded=0;whiteSpace=wrap;html=1;dashed=1;" vertex="1" parent="1">
          <mxGeometry x="470" y="160.5" width="260" height="250" as="geometry" />
        </mxCell>
        <mxCell id="QAvrT4whTYch6-Az0xgL-62" value="" style="rounded=0;whiteSpace=wrap;html=1;dashed=1;" parent="1" vertex="1">
          <mxGeometry x="292" y="886" width="279" height="80" as="geometry" />
        </mxCell>
        <mxCell id="QAvrT4whTYch6-Az0xgL-61" value="" style="rounded=0;whiteSpace=wrap;html=1;dashed=1;" parent="1" vertex="1">
          <mxGeometry x="320" y="760" width="220" height="80" as="geometry" />
        </mxCell>
        <mxCell id="QAvrT4whTYch6-Az0xgL-60" value="" style="rounded=0;whiteSpace=wrap;html=1;strokeColor=default;dashed=1;" parent="1" vertex="1">
          <mxGeometry x="290.5" y="631" width="279" height="80" as="geometry" />
        </mxCell>
        <mxCell id="DQu54AZHkkBTK6mNKedk-17" style="edgeStyle=none;curved=1;rounded=0;orthogonalLoop=1;jettySize=auto;html=1;fontSize=12;startSize=8;endSize=8;" edge="1" parent="1" target="QAvrT4whTYch6-Az0xgL-16">
          <mxGeometry relative="1" as="geometry">
            <mxPoint x="155.5" y="463" as="targetPoint" />
            <mxPoint x="430" y="440" as="sourcePoint" />
          </mxGeometry>
        </mxCell>
        <mxCell id="QAvrT4whTYch6-Az0xgL-51" value="" style="rounded=0;whiteSpace=wrap;html=1;dashed=1;" parent="1" vertex="1">
          <mxGeometry x="120" y="160.5" width="260" height="250" as="geometry" />
        </mxCell>
        <mxCell id="QAvrT4whTYch6-Az0xgL-48" value="" style="rounded=0;whiteSpace=wrap;html=1;dashed=1;" parent="1" vertex="1">
          <mxGeometry x="344" y="-50" width="175" height="180" as="geometry" />
        </mxCell>
        <mxCell id="QAvrT4whTYch6-Az0xgL-1" value="input &amp;lt;- input_in&lt;div&gt;a &amp;lt;- mod[k]&amp;nbsp;&amp;nbsp;&lt;/div&gt;&lt;div&gt;valid &amp;lt;- 0&amp;nbsp; &amp;nbsp; &amp;nbsp;&amp;nbsp;&lt;/div&gt;" style="rounded=0;whiteSpace=wrap;html=1;" parent="1" vertex="1">
          <mxGeometry x="369" y="-40" width="120" height="55" as="geometry" />
        </mxCell>
        <mxCell id="QAvrT4whTYch6-Az0xgL-2" value="up == 1" style="rhombus;whiteSpace=wrap;html=1;" parent="1" vertex="1">
          <mxGeometry x="389" y="43" width="80" height="80" as="geometry" />
        </mxCell>
        <mxCell id="QAvrT4whTYch6-Az0xgL-3" value="" style="endArrow=classic;html=1;rounded=0;exitX=0.5;exitY=1;exitDx=0;exitDy=0;entryX=0.5;entryY=0;entryDx=0;entryDy=0;" parent="1" source="QAvrT4whTYch6-Az0xgL-1" target="QAvrT4whTYch6-Az0xgL-2" edge="1">
          <mxGeometry width="50" height="50" relative="1" as="geometry">
            <mxPoint x="399" y="125" as="sourcePoint" />
            <mxPoint x="449" y="75" as="targetPoint" />
          </mxGeometry>
        </mxCell>
        <mxCell id="QAvrT4whTYch6-Az0xgL-4" value="k &amp;lt;- k + 1" style="rounded=0;whiteSpace=wrap;html=1;" parent="1" vertex="1">
          <mxGeometry x="200" y="180.5" width="101" height="39.5" as="geometry" />
        </mxCell>
        <mxCell id="QAvrT4whTYch6-Az0xgL-5" value="k == 22048" style="rhombus;whiteSpace=wrap;html=1;" parent="1" vertex="1">
          <mxGeometry x="210" y="242" width="80" height="80" as="geometry" />
        </mxCell>
        <mxCell id="QAvrT4whTYch6-Az0xgL-7" value="" style="endArrow=classic;html=1;rounded=0;exitX=0.5;exitY=1;exitDx=0;exitDy=0;" parent="1" source="QAvrT4whTYch6-Az0xgL-4" target="QAvrT4whTYch6-Az0xgL-5" edge="1">
          <mxGeometry width="50" height="50" relative="1" as="geometry">
            <mxPoint x="350" y="140" as="sourcePoint" />
            <mxPoint x="400" y="90" as="targetPoint" />
          </mxGeometry>
        </mxCell>
        <mxCell id="QAvrT4whTYch6-Az0xgL-8" value="" style="endArrow=classic;html=1;rounded=0;exitX=1;exitY=0.5;exitDx=0;exitDy=0;entryX=0.5;entryY=0;entryDx=0;entryDy=0;" parent="1" source="QAvrT4whTYch6-Az0xgL-5" target="DQu54AZHkkBTK6mNKedk-2" edge="1">
          <mxGeometry width="50" height="50" relative="1" as="geometry">
            <mxPoint x="350" y="140" as="sourcePoint" />
            <mxPoint x="250" y="342.9999999999998" as="targetPoint" />
            <Array as="points">
              <mxPoint x="331" y="282.5" />
              <mxPoint x="331" y="300.5" />
            </Array>
          </mxGeometry>
        </mxCell>
        <mxCell id="QAvrT4whTYch6-Az0xgL-14" value="" style="endArrow=classic;html=1;rounded=0;exitX=0;exitY=0.5;exitDx=0;exitDy=0;entryX=0.5;entryY=0;entryDx=0;entryDy=0;" parent="1" source="QAvrT4whTYch6-Az0xgL-2" target="QAvrT4whTYch6-Az0xgL-4" edge="1">
          <mxGeometry width="50" height="50" relative="1" as="geometry">
            <mxPoint x="400" y="342" as="sourcePoint" />
            <mxPoint x="450" y="292" as="targetPoint" />
            <Array as="points">
              <mxPoint x="250" y="80" />
            </Array>
          </mxGeometry>
        </mxCell>
        <mxCell id="QAvrT4whTYch6-Az0xgL-15" value="" style="endArrow=classic;html=1;rounded=0;exitX=1;exitY=0.5;exitDx=0;exitDy=0;" parent="1" source="QAvrT4whTYch6-Az0xgL-2" edge="1">
          <mxGeometry width="50" height="50" relative="1" as="geometry">
            <mxPoint x="400" y="342" as="sourcePoint" />
            <mxPoint x="600" y="180" as="targetPoint" />
            <Array as="points">
              <mxPoint x="600" y="83" />
            </Array>
          </mxGeometry>
        </mxCell>
        <mxCell id="QAvrT4whTYch6-Az0xgL-16" value="a_x_in &amp;lt;- a * input&amp;nbsp; &amp;nbsp; &amp;nbsp; &amp;nbsp; &amp;nbsp; &amp;nbsp; &amp;nbsp;&amp;nbsp;&lt;div&gt;a_x_pmid &amp;lt;- a * PrevMidVal&lt;/div&gt;" style="rounded=0;whiteSpace=wrap;html=1;" parent="1" vertex="1">
          <mxGeometry x="338.5" y="500" width="184" height="60" as="geometry" />
        </mxCell>
        <mxCell id="QAvrT4whTYch6-Az0xgL-22" value="" style="endArrow=classic;html=1;rounded=0;exitX=0;exitY=0.5;exitDx=0;exitDy=0;entryX=0.5;entryY=0;entryDx=0;entryDy=0;" parent="1" source="QAvrT4whTYch6-Az0xgL-5" edge="1" target="DQu54AZHkkBTK6mNKedk-1">
          <mxGeometry width="50" height="50" relative="1" as="geometry">
            <mxPoint x="350" y="410" as="sourcePoint" />
            <mxPoint x="190" y="373" as="targetPoint" />
            <Array as="points">
              <mxPoint x="169" y="280.5" />
            </Array>
          </mxGeometry>
        </mxCell>
        <mxCell id="QAvrT4whTYch6-Az0xgL-24" value="MidVal &amp;lt;- a_x_in + PrevInVal - a_x_pmid" style="rounded=0;whiteSpace=wrap;html=1;" parent="1" vertex="1">
          <mxGeometry x="305.5" y="641" width="250" height="47" as="geometry" />
        </mxCell>
        <mxCell id="QAvrT4whTYch6-Az0xgL-25" value="a_x_mid &amp;lt;- a * MidVal&amp;nbsp; &amp;nbsp; &amp;nbsp; &amp;nbsp; &amp;nbsp;&lt;div&gt;a_x_pout &amp;lt;- a * PrevOutVal&lt;/div&gt;" style="rounded=0;whiteSpace=wrap;html=1;" parent="1" vertex="1">
          <mxGeometry x="338.75" y="770" width="185.5" height="50" as="geometry" />
        </mxCell>
        <mxCell id="QAvrT4whTYch6-Az0xgL-26" value="output &amp;lt;- a_x_mid + PrevMidVal - a_x_pout" style="rounded=0;whiteSpace=wrap;html=1;" parent="1" vertex="1">
          <mxGeometry x="307" y="896" width="250" height="44" as="geometry" />
        </mxCell>
        <mxCell id="QAvrT4whTYch6-Az0xgL-27" value="PrevInVal&amp;nbsp; &amp;nbsp; &amp;lt;- input&amp;nbsp; &amp;nbsp; &amp;nbsp; &amp;nbsp; &amp;nbsp; &amp;nbsp; &amp;nbsp;&lt;div&gt;PrevMidVal &amp;lt;- MidVal&amp;nbsp; &amp;nbsp; &amp;nbsp; &amp;nbsp; &amp;nbsp;&amp;nbsp;&lt;/div&gt;&lt;div&gt;&lt;span style=&quot;background-color: initial;&quot;&gt;PrevOutVal &amp;lt;- output&lt;/span&gt;&lt;span style=&quot;background-color: initial;&quot;&gt;&amp;nbsp; &amp;nbsp; &amp;nbsp;&lt;/span&gt;&lt;/div&gt;&lt;div&gt;output_out &amp;lt;= output + input&lt;/div&gt;&lt;div&gt;valid &amp;lt;- 1&lt;span style=&quot;color: rgba(0, 0, 0, 0); font-family: monospace; font-size: 0px; text-align: start; text-wrap: nowrap; background-color: initial;&quot;&gt;%3CmxGraphModel%3E%3Croot%3E%3CmxCell%20id%3D%220%22%2F%3E%3CmxCell%20id%3D%221%22%20parent%3D%220%22%2F%3E%3CmxCell%20id%3D%222%22%20value%3D%22%22%20style%3D%22rounded%3D0%3BwhiteSpace%3Dwrap%3Bhtml%3D1%3B%22%20vertex%3D%221%22%20parent%3D%221%22%3E%3CmxGeometry%20x%3D%2230%22%20y%3D%22190%22%20width%3D%22270%22%20height%3D%22250%22%20as%3D%22geometry%22%2F%3E%3C%2FmxCell%3E%3CmxCell%20id%3D%223%22%20value%3D%22k%20%26amp%3Blt%3B-%20k%20%2B%201%22%20style%3D%22rounded%3D0%3BwhiteSpace%3Dwrap%3Bhtml%3D1%3B%22%20vertex%3D%221%22%20parent%3D%221%22%3E%3CmxGeometry%20x%3D%22111%22%20y%3D%22210%22%20width%3D%22101%22%20height%3D%2239.5%22%20as%3D%22geometry%22%2F%3E%3C%2FmxCell%3E%3CmxCell%20id%3D%224%22%20value%3D%22k%20%3D%3D%2022048%22%20style%3D%22rhombus%3BwhiteSpace%3Dwrap%3Bhtml%3D1%3B%22%20vertex%3D%221%22%20parent%3D%221%22%3E%3CmxGeometry%20x%3D%22121%22%20y%3D%22271.5%22%20width%3D%2280%22%20height%3D%2280%22%20as%3D%22geometry%22%2F%3E%3C%2FmxCell%3E%3CmxCell%20id%3D%225%22%20value%3D%22%22%20style%3D%22endArrow%3Dclassic%3Bhtml%3D1%3Brounded%3D0%3BexitX%3D0.5%3BexitY%3D1%3BexitDx%3D0%3BexitDy%3D0%3B%22%20edge%3D%221%22%20source%3D%223%22%20target%3D%224%22%20parent%3D%221%22%3E%3CmxGeometry%20width%3D%2250%22%20height%3D%2250%22%20relative%3D%221%22%20as%3D%22geometry%22%3E%3CmxPoint%20x%3D%22261%22%20y%3D%22169.5%22%20as%3D%22sourcePoint%22%2F%3E%3CmxPoint%20x%3D%22311%22%20y%3D%22119.5%22%20as%3D%22targetPoint%22%2F%3E%3C%2FmxGeometry%3E%3C%2FmxCell%3E%3CmxCell%20id%3D%226%22%20value%3D%22%22%20style%3D%22endArrow%3Dclassic%3Bhtml%3D1%3Brounded%3D0%3BexitX%3D1%3BexitY%3D0.5%3BexitDx%3D0%3BexitDy%3D0%3BentryX%3D0.5%3BentryY%3D0%3BentryDx%3D0%3BentryDy%3D0%3B%22%20edge%3D%221%22%20source%3D%224%22%20target%3D%2211%22%20parent%3D%221%22%3E%3CmxGeometry%20width%3D%2250%22%20height%3D%2250%22%20relative%3D%221%22%20as%3D%22geometry%22%3E%3CmxPoint%20x%3D%22261%22%20y%3D%22169.5%22%20as%3D%22sourcePoint%22%2F%3E%3CmxPoint%20x%3D%22161%22%20y%3D%22372.4999999999998%22%20as%3D%22targetPoint%22%2F%3E%3CArray%20as%3D%22points%22%3E%3CmxPoint%20x%3D%22242%22%20y%3D%22312%22%2F%3E%3CmxPoint%20x%3D%22242%22%20y%3D%22330%22%2F%3E%3C%2FArray%3E%3C%2FmxGeometry%3E%3C%2FmxCell%3E%3CmxCell%20id%3D%227%22%20value%3D%22%22%20style%3D%22endArrow%3Dclassic%3Bhtml%3D1%3Brounded%3D0%3BexitX%3D0%3BexitY%3D0.5%3BexitDx%3D0%3BexitDy%3D0%3BentryX%3D0.5%3BentryY%3D0%3BentryDx%3D0%3BentryDy%3D0%3B%22%20edge%3D%221%22%20source%3D%224%22%20target%3D%2210%22%20parent%3D%221%22%3E%3CmxGeometry%20width%3D%2250%22%20height%3D%2250%22%20relative%3D%221%22%20as%3D%22geometry%22%3E%3CmxPoint%20x%3D%22261%22%20y%3D%22439.5%22%20as%3D%22sourcePoint%22%2F%3E%3CmxPoint%20x%3D%22101%22%20y%3D%22402.5%22%20as%3D%22targetPoint%22%2F%3E%3CArray%20as%3D%22points%22%3E%3CmxPoint%20x%3D%2280%22%20y%3D%22310%22%2F%3E%3C%2FArray%3E%3C%2FmxGeometry%3E%3C%2FmxCell%3E%3CmxCell%20id%3D%228%22%20value%3D%22true%22%20style%3D%22text%3Bhtml%3D1%3Balign%3Dcenter%3BverticalAlign%3Dmiddle%3BwhiteSpace%3Dwrap%3Brounded%3D0%3B%22%20vertex%3D%221%22%20parent%3D%221%22%3E%3CmxGeometry%20x%3D%22204%22%20y%3D%22286.5%22%20width%3D%2260%22%20height%3D%2230%22%20as%3D%22geometry%22%2F%3E%3C%2FmxCell%3E%3CmxCell%20id%3D%229%22%20value%3D%22false%22%20style%3D%22text%3Bhtml%3D1%3Balign%3Dcenter%3BverticalAlign%3Dmiddle%3BwhiteSpace%3Dwrap%3Brounded%3D0%3B%22%20vertex%3D%221%22%20parent%3D%221%22%3E%3CmxGeometry%20x%3D%2266%22%20y%3D%22287.5%22%20width%3D%2260%22%20height%3D%2230%22%20as%3D%22geometry%22%2F%3E%3C%2FmxCell%3E%3CmxCell%20id%3D%2210%22%20value%3D%22up%20%26amp%3Blt%3B-%201%22%20style%3D%22rounded%3D1%3BwhiteSpace%3Dwrap%3Bhtml%3D1%3B%22%20vertex%3D%221%22%20parent%3D%221%22%3E%3CmxGeometry%20x%3D%2241%22%20y%3D%22351.5%22%20width%3D%2280%22%20height%3D%2230.5%22%20as%3D%22geometry%22%2F%3E%3C%2FmxCell%3E%3CmxCell%20id%3D%2211%22%20value%3D%22up%20%26amp%3Blt%3B-%200%22%20style%3D%22rounded%3D1%3BwhiteSpace%3Dwrap%3Bhtml%3D1%3B%22%20vertex%3D%221%22%20parent%3D%221%22%3E%3CmxGeometry%20x%3D%22201%22%20y%3D%22351.5%22%20width%3D%2281%22%20height%3D%2230.5%22%20as%3D%22geometry%22%2F%3E%3C%2FmxCell%3E%3CmxCell%20id%3D%2212%22%20value%3D%22%22%20style%3D%22endArrow%3Dnone%3Bhtml%3D1%3Brounded%3D0%3BfontSize%3D12%3BstartSize%3D8%3BendSize%3D8%3BexitX%3D0.5%3BexitY%3D1%3BexitDx%3D0%3BexitDy%3D0%3BentryX%3D0.5%3BentryY%3D1%3BentryDx%3D0%3BentryDy%3D0%3BedgeStyle%3DorthogonalEdgeStyle%3B%22%20edge%3D%221%22%20source%3D%2210%22%20target%3D%2211%22%20parent%3D%221%22%3E%3CmxGeometry%20width%3D%2250%22%20height%3D%2250%22%20relative%3D%221%22%20as%3D%22geometry%22%3E%3CmxPoint%20x%3D%22126%22%20y%3D%22427.5%22%20as%3D%22sourcePoint%22%2F%3E%3CmxPoint%20x%3D%22176%22%20y%3D%22377.5%22%20as%3D%22targetPoint%22%2F%3E%3CArray%20as%3D%22points%22%3E%3CmxPoint%20x%3D%2281%22%20y%3D%22410%22%2F%3E%3CmxPoint%20x%3D%22242%22%20y%3D%22410%22%2F%3E%3C%2FArray%3E%3C%2FmxGeometry%3E%3C%2FmxCell%3E%3C%2Froot%3E%3C%2FmxGraphModel%3E&lt;/span&gt;&lt;/div&gt;" style="rounded=0;whiteSpace=wrap;html=1;align=center;labelPosition=center;verticalLabelPosition=middle;verticalAlign=middle;" parent="1" vertex="1">
          <mxGeometry x="306.5" y="1020" width="250" height="87" as="geometry" />
        </mxCell>
        <mxCell id="QAvrT4whTYch6-Az0xgL-28" value="on_in == 1" style="rhombus;whiteSpace=wrap;html=1;" parent="1" vertex="1">
          <mxGeometry x="392" y="1130" width="80" height="80" as="geometry" />
        </mxCell>
        <mxCell id="QAvrT4whTYch6-Az0xgL-29" value="" style="endArrow=classic;html=1;rounded=0;exitX=0.5;exitY=1;exitDx=0;exitDy=0;entryX=0.5;entryY=0;entryDx=0;entryDy=0;" parent="1" source="QAvrT4whTYch6-Az0xgL-16" target="QAvrT4whTYch6-Az0xgL-24" edge="1">
          <mxGeometry width="50" height="50" relative="1" as="geometry">
            <mxPoint x="400" y="860" as="sourcePoint" />
            <mxPoint x="450" y="810" as="targetPoint" />
          </mxGeometry>
        </mxCell>
        <mxCell id="QAvrT4whTYch6-Az0xgL-30" value="" style="endArrow=classic;html=1;rounded=0;exitX=0.5;exitY=1;exitDx=0;exitDy=0;" parent="1" source="QAvrT4whTYch6-Az0xgL-24" target="QAvrT4whTYch6-Az0xgL-25" edge="1">
          <mxGeometry width="50" height="50" relative="1" as="geometry">
            <mxPoint x="430" y="700" as="sourcePoint" />
            <mxPoint x="450" y="810" as="targetPoint" />
          </mxGeometry>
        </mxCell>
        <mxCell id="QAvrT4whTYch6-Az0xgL-31" value="" style="endArrow=classic;html=1;rounded=0;exitX=0.5;exitY=1;exitDx=0;exitDy=0;entryX=0.5;entryY=0;entryDx=0;entryDy=0;" parent="1" source="QAvrT4whTYch6-Az0xgL-25" target="QAvrT4whTYch6-Az0xgL-26" edge="1">
          <mxGeometry width="50" height="50" relative="1" as="geometry">
            <mxPoint x="399.5" y="913" as="sourcePoint" />
            <mxPoint x="449.5" y="863" as="targetPoint" />
          </mxGeometry>
        </mxCell>
        <mxCell id="QAvrT4whTYch6-Az0xgL-32" value="" style="endArrow=classic;html=1;rounded=0;exitX=0.5;exitY=1;exitDx=0;exitDy=0;" parent="1" source="QAvrT4whTYch6-Az0xgL-26" target="QAvrT4whTYch6-Az0xgL-27" edge="1">
          <mxGeometry width="50" height="50" relative="1" as="geometry">
            <mxPoint x="402" y="940" as="sourcePoint" />
            <mxPoint x="452" y="890" as="targetPoint" />
          </mxGeometry>
        </mxCell>
        <mxCell id="QAvrT4whTYch6-Az0xgL-33" value="" style="endArrow=classic;html=1;rounded=0;exitX=0.5;exitY=1;exitDx=0;exitDy=0;" parent="1" source="QAvrT4whTYch6-Az0xgL-27" target="QAvrT4whTYch6-Az0xgL-28" edge="1">
          <mxGeometry width="50" height="50" relative="1" as="geometry">
            <mxPoint x="402" y="990" as="sourcePoint" />
            <mxPoint x="452" y="940" as="targetPoint" />
          </mxGeometry>
        </mxCell>
        <mxCell id="QAvrT4whTYch6-Az0xgL-34" value="" style="endArrow=classic;html=1;rounded=0;exitX=1;exitY=0.5;exitDx=0;exitDy=0;" parent="1" edge="1" target="QAvrT4whTYch6-Az0xgL-1">
          <mxGeometry width="50" height="50" relative="1" as="geometry">
            <mxPoint x="472" y="1170" as="sourcePoint" />
            <mxPoint x="877" y="-100" as="targetPoint" />
            <Array as="points">
              <mxPoint x="650" y="1170" />
              <mxPoint x="760" y="1170" />
              <mxPoint x="760" y="-40" />
              <mxPoint x="760" y="-80" />
              <mxPoint x="430" y="-80" />
            </Array>
          </mxGeometry>
        </mxCell>
        <mxCell id="QAvrT4whTYch6-Az0xgL-39" value="true" style="text;html=1;align=center;verticalAlign=middle;whiteSpace=wrap;rounded=0;" parent="1" vertex="1">
          <mxGeometry x="337" y="53" width="60" height="30" as="geometry" />
        </mxCell>
        <mxCell id="QAvrT4whTYch6-Az0xgL-40" value="true" style="text;html=1;align=center;verticalAlign=middle;whiteSpace=wrap;rounded=0;" parent="1" vertex="1">
          <mxGeometry x="293" y="257" width="60" height="30" as="geometry" />
        </mxCell>
        <mxCell id="QAvrT4whTYch6-Az0xgL-42" value="false" style="text;html=1;align=center;verticalAlign=middle;whiteSpace=wrap;rounded=0;" parent="1" vertex="1">
          <mxGeometry x="466" y="53" width="60" height="30" as="geometry" />
        </mxCell>
        <mxCell id="QAvrT4whTYch6-Az0xgL-44" value="false" style="text;html=1;align=center;verticalAlign=middle;whiteSpace=wrap;rounded=0;" parent="1" vertex="1">
          <mxGeometry x="155" y="258" width="60" height="30" as="geometry" />
        </mxCell>
        <mxCell id="QAvrT4whTYch6-Az0xgL-46" value="true" style="text;html=1;align=center;verticalAlign=middle;whiteSpace=wrap;rounded=0;" parent="1" vertex="1">
          <mxGeometry x="477" y="1140" width="60" height="30" as="geometry" />
        </mxCell>
        <mxCell id="QAvrT4whTYch6-Az0xgL-47" value="false" style="text;html=1;align=center;verticalAlign=middle;whiteSpace=wrap;rounded=0;" parent="1" vertex="1">
          <mxGeometry x="333" y="1140" width="60" height="30" as="geometry" />
        </mxCell>
        <mxCell id="QAvrT4whTYch6-Az0xgL-50" value="&lt;font style=&quot;font-size: 18px;&quot;&gt;&lt;b&gt;LOAD&lt;/b&gt;&lt;/font&gt;" style="text;html=1;align=center;verticalAlign=middle;whiteSpace=wrap;rounded=0;" parent="1" vertex="1">
          <mxGeometry x="459" y="-80" width="60" height="30" as="geometry" />
        </mxCell>
        <mxCell id="QAvrT4whTYch6-Az0xgL-52" value="&lt;span style=&quot;font-size: 18px;&quot;&gt;&lt;b&gt;INC&lt;/b&gt;&lt;/span&gt;" style="text;html=1;align=center;verticalAlign=middle;whiteSpace=wrap;rounded=0;" parent="1" vertex="1">
          <mxGeometry x="120" y="130.5" width="60" height="30" as="geometry" />
        </mxCell>
        <mxCell id="QAvrT4whTYch6-Az0xgL-57" value="&lt;span style=&quot;font-size: 18px;&quot;&gt;&lt;b&gt;DEC&lt;/b&gt;&lt;/span&gt;" style="text;html=1;align=center;verticalAlign=middle;whiteSpace=wrap;rounded=0;" parent="1" vertex="1">
          <mxGeometry x="670" y="130" width="60" height="30" as="geometry" />
        </mxCell>
        <mxCell id="QAvrT4whTYch6-Az0xgL-64" value="&lt;span style=&quot;font-size: 18px;&quot;&gt;&lt;b&gt;PRE_F1&lt;/b&gt;&lt;/span&gt;" style="text;html=1;align=center;verticalAlign=middle;whiteSpace=wrap;rounded=0;" parent="1" vertex="1">
          <mxGeometry x="490" y="460" width="60" height="30" as="geometry" />
        </mxCell>
        <mxCell id="QAvrT4whTYch6-Az0xgL-65" value="&lt;span style=&quot;font-size: 18px;&quot;&gt;&lt;b&gt;F1&lt;/b&gt;&lt;/span&gt;" style="text;html=1;align=center;verticalAlign=middle;whiteSpace=wrap;rounded=0;" parent="1" vertex="1">
          <mxGeometry x="509.5" y="601" width="60" height="30" as="geometry" />
        </mxCell>
        <mxCell id="QAvrT4whTYch6-Az0xgL-66" value="&lt;span style=&quot;font-size: 18px;&quot;&gt;&lt;b&gt;PRE_F2&lt;/b&gt;&lt;/span&gt;" style="text;html=1;align=center;verticalAlign=middle;whiteSpace=wrap;rounded=0;" parent="1" vertex="1">
          <mxGeometry x="480" y="730" width="60" height="30" as="geometry" />
        </mxCell>
        <mxCell id="QAvrT4whTYch6-Az0xgL-67" value="&lt;span style=&quot;font-size: 18px;&quot;&gt;&lt;b&gt;F2&lt;/b&gt;&lt;/span&gt;" style="text;html=1;align=center;verticalAlign=middle;whiteSpace=wrap;rounded=0;" parent="1" vertex="1">
          <mxGeometry x="512" y="856" width="60" height="30" as="geometry" />
        </mxCell>
        <mxCell id="QAvrT4whTYch6-Az0xgL-68" value="&lt;span style=&quot;font-size: 18px;&quot;&gt;&lt;b&gt;OUT&lt;/b&gt;&lt;/span&gt;" style="text;html=1;align=center;verticalAlign=middle;whiteSpace=wrap;rounded=0;" parent="1" vertex="1">
          <mxGeometry x="512" y="990" width="60" height="30" as="geometry" />
        </mxCell>
        <mxCell id="DQu54AZHkkBTK6mNKedk-1" value="up &amp;lt;- 1" style="rounded=1;whiteSpace=wrap;html=1;" vertex="1" parent="1">
          <mxGeometry x="130" y="322" width="80" height="30.5" as="geometry" />
        </mxCell>
        <mxCell id="DQu54AZHkkBTK6mNKedk-2" value="up &amp;lt;- 0" style="rounded=1;whiteSpace=wrap;html=1;" vertex="1" parent="1">
          <mxGeometry x="290" y="322" width="81" height="30.5" as="geometry" />
        </mxCell>
        <mxCell id="DQu54AZHkkBTK6mNKedk-4" value="" style="endArrow=none;html=1;rounded=0;fontSize=12;startSize=8;endSize=8;exitX=0.5;exitY=1;exitDx=0;exitDy=0;entryX=0.5;entryY=1;entryDx=0;entryDy=0;edgeStyle=orthogonalEdgeStyle;" edge="1" parent="1" source="DQu54AZHkkBTK6mNKedk-1" target="DQu54AZHkkBTK6mNKedk-2">
          <mxGeometry width="50" height="50" relative="1" as="geometry">
            <mxPoint x="215" y="398" as="sourcePoint" />
            <mxPoint x="265" y="348" as="targetPoint" />
            <Array as="points">
              <mxPoint x="170" y="380.5" />
              <mxPoint x="331" y="380.5" />
            </Array>
          </mxGeometry>
        </mxCell>
        <mxCell id="DQu54AZHkkBTK6mNKedk-6" value="k &amp;lt;- k - 1" style="rounded=0;whiteSpace=wrap;html=1;" vertex="1" parent="1">
          <mxGeometry x="550" y="180.5" width="101" height="39.5" as="geometry" />
        </mxCell>
        <mxCell id="DQu54AZHkkBTK6mNKedk-7" value="k == 1" style="rhombus;whiteSpace=wrap;html=1;" vertex="1" parent="1">
          <mxGeometry x="560" y="242" width="80" height="80" as="geometry" />
        </mxCell>
        <mxCell id="DQu54AZHkkBTK6mNKedk-8" value="" style="endArrow=classic;html=1;rounded=0;exitX=0.5;exitY=1;exitDx=0;exitDy=0;" edge="1" parent="1" source="DQu54AZHkkBTK6mNKedk-6" target="DQu54AZHkkBTK6mNKedk-7">
          <mxGeometry width="50" height="50" relative="1" as="geometry">
            <mxPoint x="700" y="140" as="sourcePoint" />
            <mxPoint x="750" y="90" as="targetPoint" />
          </mxGeometry>
        </mxCell>
        <mxCell id="DQu54AZHkkBTK6mNKedk-9" value="" style="endArrow=classic;html=1;rounded=0;exitX=1;exitY=0.5;exitDx=0;exitDy=0;entryX=0.5;entryY=0;entryDx=0;entryDy=0;" edge="1" parent="1" source="DQu54AZHkkBTK6mNKedk-7" target="DQu54AZHkkBTK6mNKedk-14">
          <mxGeometry width="50" height="50" relative="1" as="geometry">
            <mxPoint x="700" y="140" as="sourcePoint" />
            <mxPoint x="600" y="342.9999999999998" as="targetPoint" />
            <Array as="points">
              <mxPoint x="681" y="282.5" />
              <mxPoint x="681" y="300.5" />
            </Array>
          </mxGeometry>
        </mxCell>
        <mxCell id="DQu54AZHkkBTK6mNKedk-10" value="" style="endArrow=classic;html=1;rounded=0;exitX=0;exitY=0.5;exitDx=0;exitDy=0;entryX=0.5;entryY=0;entryDx=0;entryDy=0;" edge="1" parent="1" source="DQu54AZHkkBTK6mNKedk-7" target="DQu54AZHkkBTK6mNKedk-13">
          <mxGeometry width="50" height="50" relative="1" as="geometry">
            <mxPoint x="700" y="410" as="sourcePoint" />
            <mxPoint x="540" y="373" as="targetPoint" />
            <Array as="points">
              <mxPoint x="519" y="280.5" />
            </Array>
          </mxGeometry>
        </mxCell>
        <mxCell id="DQu54AZHkkBTK6mNKedk-11" value="true" style="text;html=1;align=center;verticalAlign=middle;whiteSpace=wrap;rounded=0;" vertex="1" parent="1">
          <mxGeometry x="643" y="257" width="60" height="30" as="geometry" />
        </mxCell>
        <mxCell id="DQu54AZHkkBTK6mNKedk-12" value="false" style="text;html=1;align=center;verticalAlign=middle;whiteSpace=wrap;rounded=0;" vertex="1" parent="1">
          <mxGeometry x="505" y="258" width="60" height="30" as="geometry" />
        </mxCell>
        <mxCell id="DQu54AZHkkBTK6mNKedk-13" value="up &amp;lt;- 0" style="rounded=1;whiteSpace=wrap;html=1;" vertex="1" parent="1">
          <mxGeometry x="480" y="322" width="80" height="30.5" as="geometry" />
        </mxCell>
        <mxCell id="DQu54AZHkkBTK6mNKedk-14" value="up &amp;lt;- 1" style="rounded=1;whiteSpace=wrap;html=1;" vertex="1" parent="1">
          <mxGeometry x="640" y="322" width="81" height="30.5" as="geometry" />
        </mxCell>
        <mxCell id="DQu54AZHkkBTK6mNKedk-15" value="" style="endArrow=none;html=1;rounded=0;fontSize=12;startSize=8;endSize=8;exitX=0.5;exitY=1;exitDx=0;exitDy=0;entryX=0.5;entryY=1;entryDx=0;entryDy=0;edgeStyle=orthogonalEdgeStyle;" edge="1" parent="1" source="DQu54AZHkkBTK6mNKedk-13" target="DQu54AZHkkBTK6mNKedk-14">
          <mxGeometry width="50" height="50" relative="1" as="geometry">
            <mxPoint x="565" y="398" as="sourcePoint" />
            <mxPoint x="615" y="348" as="targetPoint" />
            <Array as="points">
              <mxPoint x="520" y="380.5" />
              <mxPoint x="681" y="380.5" />
            </Array>
          </mxGeometry>
        </mxCell>
        <mxCell id="DQu54AZHkkBTK6mNKedk-16" value="" style="endArrow=none;html=1;rounded=0;fontSize=12;startSize=8;endSize=8;edgeStyle=orthogonalEdgeStyle;" edge="1" parent="1">
          <mxGeometry width="50" height="50" relative="1" as="geometry">
            <mxPoint x="250" y="380" as="sourcePoint" />
            <mxPoint x="600" y="380" as="targetPoint" />
            <Array as="points">
              <mxPoint x="250" y="440" />
              <mxPoint x="600" y="440" />
            </Array>
          </mxGeometry>
        </mxCell>
        <mxCell id="DQu54AZHkkBTK6mNKedk-18" value="on == 1" style="rhombus;whiteSpace=wrap;html=1;" vertex="1" parent="1">
          <mxGeometry x="310" y="-190" width="80" height="80" as="geometry" />
        </mxCell>
        <mxCell id="DQu54AZHkkBTK6mNKedk-19" value="false" style="text;html=1;align=center;verticalAlign=middle;whiteSpace=wrap;rounded=0;" vertex="1" parent="1">
          <mxGeometry x="250" y="-180" width="60" height="30" as="geometry" />
        </mxCell>
        <mxCell id="DQu54AZHkkBTK6mNKedk-20" value="true" style="text;html=1;align=center;verticalAlign=middle;whiteSpace=wrap;rounded=0;" vertex="1" parent="1">
          <mxGeometry x="391" y="-180" width="60" height="30" as="geometry" />
        </mxCell>
        <mxCell id="DQu54AZHkkBTK6mNKedk-22" value="" style="endArrow=classic;html=1;rounded=0;fontSize=12;startSize=8;endSize=8;exitX=0;exitY=0.5;exitDx=0;exitDy=0;edgeStyle=orthogonalEdgeStyle;entryX=0.5;entryY=0;entryDx=0;entryDy=0;" edge="1" parent="1" source="DQu54AZHkkBTK6mNKedk-18" target="DQu54AZHkkBTK6mNKedk-18">
          <mxGeometry width="50" height="50" relative="1" as="geometry">
            <mxPoint x="301" y="-150" as="sourcePoint" />
            <mxPoint x="351" y="-240" as="targetPoint" />
            <Array as="points">
              <mxPoint x="251" y="-150" />
              <mxPoint x="251" y="-240" />
              <mxPoint x="350" y="-240" />
            </Array>
          </mxGeometry>
        </mxCell>
        <mxCell id="DQu54AZHkkBTK6mNKedk-24" value="" style="endArrow=none;html=1;rounded=0;fontSize=12;startSize=8;endSize=8;exitX=0;exitY=1;exitDx=0;exitDy=0;edgeStyle=orthogonalEdgeStyle;" edge="1" parent="1" source="DQu54AZHkkBTK6mNKedk-20">
          <mxGeometry width="50" height="50" relative="1" as="geometry">
            <mxPoint x="380" y="-50" as="sourcePoint" />
            <mxPoint x="430" y="-80" as="targetPoint" />
            <Array as="points">
              <mxPoint x="430" y="-150" />
            </Array>
          </mxGeometry>
        </mxCell>
        <mxCell id="DQu54AZHkkBTK6mNKedk-25" value="" style="endArrow=none;html=1;rounded=0;fontSize=12;startSize=8;endSize=8;entryX=1;entryY=1;entryDx=0;entryDy=0;edgeStyle=orthogonalEdgeStyle;" edge="1" parent="1" target="QAvrT4whTYch6-Az0xgL-47">
          <mxGeometry width="50" height="50" relative="1" as="geometry">
            <mxPoint x="250" y="-240" as="sourcePoint" />
            <mxPoint x="230" y="1160" as="targetPoint" />
            <Array as="points">
              <mxPoint x="80" y="-240" />
              <mxPoint x="80" y="1170" />
            </Array>
          </mxGeometry>
        </mxCell>
        <mxCell id="DQu54AZHkkBTK6mNKedk-27" value="&lt;font style=&quot;font-size: 18px;&quot;&gt;&lt;b&gt;IDLE&lt;/b&gt;&lt;/font&gt;" style="text;html=1;align=center;verticalAlign=middle;whiteSpace=wrap;rounded=0;" vertex="1" parent="1">
          <mxGeometry x="389" y="-290" width="60" height="30" as="geometry" />
        </mxCell>
      </root>
    </mxGraphModel>
  </diagram>
</mxfile>
